<svg xmlns="http://www.w3.org/2000/svg" viewBox="0 0 1080 1080" width="1080" height="1080" role="img" aria-label="STAR XI social post 1:1">
  <title>STAR XI · square social post</title>
  <rect width="1080" height="1080" fill="#08130D"/>
  <!-- grain wash -->
  <defs>
    <filter id="grain">
      <feTurbulence type="fractalNoise" baseFrequency="0.9" numOctaves="4" stitchTiles="stitch"/>
      <feColorMatrix values="0 0 0 0 1  0 0 0 0 1  0 0 0 0 1  0 0 0 0.05 0"/>
    </filter>
  </defs>
  <rect width="1080" height="1080" filter="url(#grain)"/>
  <g transform="translate(390 310) scale(1.5)" fill="#E9B949">
    <path d="M48,24 L152,24 Q166,24 166,48 Q166,110 146,148 Q126,184 100,196 Q74,184 54,148 Q34,110 34,48 Q34,24 48,24 Z" fill="none" stroke="#E9B949" stroke-width="7" stroke-linejoin="round"/>
    <g transform="translate(100,110) scale(0.9) translate(-100,-110)">
      <path d="M48,24 L152,24 Q166,24 166,48 Q166,110 146,148 Q126,184 100,196 Q74,184 54,148 Q34,110 34,48 Q34,24 48,24 Z" fill="none" stroke="#E9B949" stroke-width="3"/>
    </g>
    <polygon points="100,37 103.41,47.31 114.27,47.36 105.52,53.79 108.82,64.14 100,57.8 91.18,64.14 94.48,53.79 85.73,47.36 96.59,47.31"/>
    <polygon points="55,80 75,80 117,148 97,148"/>
    <polygon points="97,80 117,80 75,148 55,148"/>
    <polygon points="125,80 145,80 145,148 125,148"/>
  </g>
  <text x="540" y="780" text-anchor="middle"
        font-family="Anton, 'Arial Narrow', sans-serif" font-size="120" fill="#F3F1E9"
        letter-spacing="6">STAR XI</text>
  <text x="540" y="850" text-anchor="middle"
        font-family="Inter, system-ui, sans-serif" font-weight="700" font-size="22"
        letter-spacing="6" fill="#E9B949">WORLD CUP 2026 EDITION</text>
  <text x="540" y="990" text-anchor="middle"
        font-family="Inter, system-ui, sans-serif" font-weight="600" font-size="20"
        letter-spacing="4" fill="rgba(243,241,233,0.55)">MADE BY FANS · FOR THE FANS</text>
</svg>
