<svg xmlns="http://www.w3.org/2000/svg" viewBox="0 0 200 210" width="200" height="210" role="img" aria-label="STAR XI mark">
  <title>STAR XI</title>
  <!-- Outer shield -->
  <path d="M48,24 L152,24 Q166,24 166,48 Q166,110 146,148 Q126,184 100,196 Q74,184 54,148 Q34,110 34,48 Q34,24 48,24 Z"
        fill="none" stroke="currentColor" stroke-width="7" stroke-linejoin="round" />
  <!-- Inner shield (scaled 0.9) -->
  <g transform="translate(100,110) scale(0.9) translate(-100,-110)">
    <path d="M48,24 L152,24 Q166,24 166,48 Q166,110 146,148 Q126,184 100,196 Q74,184 54,148 Q34,110 34,48 Q34,24 48,24 Z"
          fill="none" stroke="currentColor" stroke-width="3" />
  </g>
  <!-- Star -->
  <polygon points="100,37 103.41,47.31 114.27,47.36 105.52,53.79 108.82,64.14 100,57.8 91.18,64.14 94.48,53.79 85.73,47.36 96.59,47.31"
           fill="currentColor" />
  <!-- XI -->
  <g fill="currentColor">
    <polygon points="55,80 75,80 117,148 97,148" />
    <polygon points="97,80 117,80 75,148 55,148" />
    <polygon points="125,80 145,80 145,148 125,148" />
  </g>
</svg>
