<svg xmlns="http://www.w3.org/2000/svg" viewBox="0 0 1024 1024" width="1024" height="1024" role="img" aria-label="STAR XI avatar — green">
  <title>STAR XI avatar · green</title>
  <circle cx="512" cy="512" r="512" fill="#0B7A3E"/>
  <g transform="translate(170 130) scale(3.42)" fill="#F3F1E9" stroke="#F3F1E9">
    <path d="M48,24 L152,24 Q166,24 166,48 Q166,110 146,148 Q126,184 100,196 Q74,184 54,148 Q34,110 34,48 Q34,24 48,24 Z" fill="none" stroke-width="7" stroke-linejoin="round"/>
    <g transform="translate(100,110) scale(0.9) translate(-100,-110)">
      <path d="M48,24 L152,24 Q166,24 166,48 Q166,110 146,148 Q126,184 100,196 Q74,184 54,148 Q34,110 34,48 Q34,24 48,24 Z" fill="none" stroke-width="3"/>
    </g>
    <polygon points="100,37 103.41,47.31 114.27,47.36 105.52,53.79 108.82,64.14 100,57.8 91.18,64.14 94.48,53.79 85.73,47.36 96.59,47.31" stroke="none"/>
    <polygon points="55,80 75,80 117,148 97,148" stroke="none"/>
    <polygon points="97,80 117,80 75,148 55,148" stroke="none"/>
    <polygon points="125,80 145,80 145,148 125,148" stroke="none"/>
  </g>
</svg>
