<svg xmlns="http://www.w3.org/2000/svg" viewBox="285 243 1668 1492" width="1668" height="1492" role="img" aria-label="STAR XI"><path fill="#0B7A3E" fill-rule="evenodd" d="M 1953.00,748.00 C 1923.67,748.33 1806.33,749.67 1777.00,750.00 C 1733.83,862.00 1561.17,1310.00 1518.00,1422.00 C 1544.83,1422.00 1652.17,1422.00 1679.00,1422.00 C 1683.00,1419.33 1699.00,1408.67 1703.00,1406.00 C 1744.67,1296.33 1911.33,857.67 1953.00,748.00 Z M 1710.00,745.00 C 1675.17,746.33 1535.83,751.67 1501.00,753.00 C 1471.17,780.17 1351.83,888.83 1322.00,916.00 C 1312.83,888.33 1276.17,777.67 1267.00,750.00 C 1236.83,749.50 1116.17,747.50 1086.00,747.00 C 1098.17,797.33 1146.83,998.67 1159.00,1049.00 C 1098.83,1101.83 897.17,1295.33 798.00,1366.00 C 698.83,1436.67 603.00,1455.17 564.00,1473.00 C 549.00,1514.83 489.00,1682.17 474.00,1724.00 C 483.33,1722.50 465.17,1753.00 530.00,1715.00 C 594.83,1677.00 751.83,1581.00 863.00,1496.00 C 974.17,1411.00 1141.33,1253.50 1197.00,1205.00 C 1209.17,1240.50 1257.83,1382.50 1270.00,1418.00 C 1299.67,1418.67 1418.33,1421.33 1448.00,1422.00 C 1433.50,1363.00 1375.50,1127.00 1361.00,1068.00 C 1419.17,1014.17 1651.83,798.83 1710.00,745.00 Z M 1082.00,243.00 C 1042.50,325.67 884.50,656.33 845.00,739.00 C 751.67,745.67 378.33,772.33 285.00,779.00 C 349.00,839.33 605.00,1080.67 669.00,1141.00 C 656.50,1182.50 606.50,1348.50 594.00,1390.00 C 622.00,1374.50 734.00,1312.50 762.00,1297.00 C 772.00,1269.67 812.00,1160.33 822.00,1133.00 C 819.50,1124.33 842.17,1120.00 807.00,1081.00 C 771.83,1042.00 643.67,929.33 611.00,899.00 C 662.67,894.17 869.33,874.83 921.00,870.00 C 945.17,822.83 1041.83,634.17 1066.00,587.00 C 1073.50,600.67 1103.50,655.33 1111.00,669.00 C 1132.83,669.00 1220.17,669.00 1242.00,669.00 C 1215.33,598.00 1108.67,314.00 1082.00,243.00 Z"/></svg>
